<?xml version="1.0" standalone="no"?>
<!DOCTYPE svg PUBLIC "-//W3C//DTD SVG 20010904//EN"
 "http://www.w3.org/TR/2001/REC-SVG-20010904/DTD/svg10.dtd">
<svg version="1.0" xmlns="http://www.w3.org/2000/svg"
 width="512.000000pt" height="512.000000pt" viewBox="0 0 512.000000 512.000000"
 preserveAspectRatio="xMidYMid meet">
<metadata>
Created by potrace 1.16, written by Peter Selinger 2001-2019
</metadata>
<g transform="translate(0.000000,512.000000) scale(0.100000,-0.100000)"
fill="#000000" stroke="none">
<path d="M1920 4813 c-23 -60 -53 -137 -66 -173 l-25 -65 -136 -44 c-75 -24
-193 -72 -262 -107 l-126 -64 -167 74 -166 73 -201 -201 c-110 -111 -201 -205
-201 -209 0 -4 32 -79 71 -167 l72 -160 -66 -133 c-60 -119 -106 -240 -136
-352 l-11 -40 -170 -65 -170 -65 2 -290 3 -290 168 -65 167 -64 11 -41 c27
-104 76 -231 136 -351 l65 -131 -71 -161 c-39 -88 -71 -164 -71 -168 0 -13
393 -404 406 -404 5 0 81 32 168 71 l159 70 131 -65 c121 -60 251 -110 352
-136 40 -10 43 -13 67 -78 14 -37 44 -115 67 -175 l41 -107 180 0 179 0 0 229
c0 227 0 230 -24 258 -59 71 -96 183 -96 292 l0 59 -67 7 c-297 31 -567 159
-774 367 -178 179 -292 393 -345 648 -22 102 -25 351 -5 449 85 434 354 771
748 941 206 88 469 122 684 86 267 -44 501 -165 694 -360 190 -192 304 -411
350 -672 16 -90 19 -291 6 -381 l-7 -52 275 -3 c306 -4 334 -9 419 -77 l39
-31 59 24 59 24 0 288 0 288 -169 65 -169 66 -37 115 c-42 132 -86 235 -142
334 l-39 69 76 171 76 170 -203 203 -203 202 -170 -75 c-144 -65 -173 -74
-189 -64 -69 43 -251 125 -347 155 -63 20 -123 40 -134 45 -15 6 -37 52 -85
179 l-65 171 -287 0 -287 0 -41 -107z"/>
<path d="M2720 3411 c-19 -11 -177 -162 -350 -335 l-315 -316 -130 130 c-138
138 -175 160 -259 160 -84 0 -175 -64 -206 -145 -19 -48 -15 -137 8 -181 25
-48 434 -455 482 -479 19 -10 64 -20 100 -23 53 -3 74 0 106 16 23 12 212 194
456 439 376 377 418 422 428 463 26 96 -14 206 -92 258 -55 36 -174 43 -228
13z"/>
<path d="M3302 2440 c-86 -20 -144 -92 -150 -186 l-4 -64 95 0 96 0 3 33 3 32
315 0 315 0 3 -32 3 -33 95 0 94 0 0 45 c0 93 -59 175 -144 200 -40 12 -115
15 -370 14 -177 -1 -336 -5 -354 -9z"/>
<path d="M2388 2011 l-33 -29 0 -289 0 -288 30 -54 c84 -152 300 -246 684
-296 63 -8 134 -15 157 -15 40 0 42 1 49 37 11 60 59 144 111 196 152 150 378
152 538 6 58 -53 98 -120 117 -193 l12 -49 96 7 c124 9 344 50 446 82 177 56
302 142 345 236 18 39 20 67 20 330 l0 287 -24 28 -24 28 -211 3 -211 3 0
-193 c0 -181 -2 -196 -24 -243 -13 -29 -44 -69 -70 -92 -85 -75 -66 -73 -735
-73 -368 0 -610 4 -632 10 -79 22 -159 98 -189 180 -8 22 -15 104 -18 223 l-4
187 -199 0 -199 0 -32 -29z"/>
<path d="M2972 1858 c3 -201 9 -223 69 -254 43 -22 1186 -21 1233 1 60 29 66
52 66 254 l0 181 -686 0 -686 0 4 -182z"/>
<path d="M3580 1225 c-101 -32 -162 -119 -163 -228 0 -106 45 -179 138 -223
121 -57 266 -8 321 110 59 126 8 274 -113 331 -48 23 -129 28 -183 10z"/>
<path d="M2470 713 c0 -326 2 -362 19 -398 22 -50 70 -91 121 -105 25 -7 378
-9 1067 -8 1021 3 1028 3 1068 24 22 11 54 40 70 63 l30 43 3 368 3 369 -63
-28 c-139 -63 -327 -109 -559 -137 -74 -8 -147 -18 -164 -20 -25 -4 -34 -13
-54 -59 -32 -74 -109 -150 -190 -189 -59 -28 -75 -31 -161 -31 -86 0 -101 3
-162 32 -83 39 -154 108 -192 185 -24 49 -33 58 -60 62 -17 3 -89 12 -161 21
-233 29 -452 83 -567 141 l-48 24 0 -357z"/>
</g>
</svg>
