<?xml version="1.0" standalone="no"?>
<!DOCTYPE svg PUBLIC "-//W3C//DTD SVG 20010904//EN"
 "http://www.w3.org/TR/2001/REC-SVG-20010904/DTD/svg10.dtd">
<svg version="1.0" xmlns="http://www.w3.org/2000/svg" height="24px" width="30px"
 width="512.000000pt" height="512.000000pt" viewBox="0 0 512.000000 512.000000"
 preserveAspectRatio="xMidYMid meet">
<metadata>
Created by potrace 1.16, written by Peter Selinger 2001-2019
</metadata>
<g transform="translate(0.000000,512.000000) scale(0.100000,-0.100000)"
fill="#000000" stroke="none">
<path d="M646 5098 c-14 -20 -16 -277 -16 -2538 0 -2261 2 -2518 16 -2538 l15
-22 1899 0 1899 0 15 22 c14 20 16 240 16 2146 0 1822 -2 2127 -14 2150 -8 15
-189 201 -403 415 l-389 387 -1511 0 -1512 0 -15 -22z m2944 -472 c0 -335 2
-375 17 -387 13 -11 90 -15 385 -17 l368 -3 0 -2049 0 -2050 -1800 0 -1800 0
0 2440 0 2440 1415 0 1415 0 0 -374z m400 -1 l275 -275 -278 0 -277 0 0 275
c0 151 1 275 3 275 1 0 126 -124 277 -275z"/>
<path d="M1886 4428 c-21 -29 -20 -51 2 -77 l17 -21 660 2 659 3 16 28 c13 24
13 30 0 55 l-16 27 -661 3 -662 2 -15 -22z"/>
<path d="M1240 4097 l-25 -13 -3 -301 c-2 -264 0 -303 14 -317 13 -14 54 -16
309 -16 254 0 296 2 309 16 14 13 16 56 16 313 0 265 -2 300 -17 312 -23 20
-566 25 -603 6z m500 -322 l0 -205 -205 0 -205 0 0 205 0 205 205 0 205 0 0
-205z"/>
<path d="M2146 3548 c-9 -12 -16 -29 -16 -38 0 -9 7 -26 16 -38 l15 -22 859 0
c945 0 890 -4 890 60 0 64 55 60 -890 60 l-859 0 -15 -22z"/>
<path d="M1226 3304 c-14 -13 -16 -56 -16 -313 0 -266 2 -300 17 -312 13 -11
75 -14 308 -14 233 0 295 3 308 14 15 12 17 46 17 312 0 257 -2 300 -16 313
-13 14 -55 16 -309 16 -254 0 -296 -2 -309 -16z m514 -309 l0 -205 -205 0
-205 0 0 205 0 205 205 0 205 0 0 -205z"/>
<path d="M1623 3155 c-12 -8 -38 -42 -58 -76 l-37 -60 -23 26 c-27 28 -51 32
-82 10 -35 -24 -33 -50 7 -134 69 -142 100 -137 210 38 44 69 80 135 80 147 0
48 -57 77 -97 49z"/>
<path d="M2157 2778 c-9 -7 -19 -25 -22 -40 -5 -21 -1 -33 19 -52 l25 -26 838
0 c653 0 844 3 863 13 32 16 40 70 14 98 -17 18 -44 19 -869 19 -665 0 -855
-3 -868 -12z"/>
<path d="M1232 2524 c-22 -15 -22 -17 -22 -313 0 -276 1 -299 18 -314 16 -15
53 -17 309 -17 268 0 291 1 306 18 15 16 17 53 17 315 0 294 0 296 -22 311
-19 14 -65 16 -303 16 -238 0 -284 -2 -303 -16z m508 -314 l0 -200 -205 0
-205 0 0 200 0 200 205 0 205 0 0 -200z"/>
<path d="M2173 2000 c-45 -18 -53 -89 -13 -110 12 -6 336 -10 868 -10 822 0
849 1 866 19 26 28 18 82 -14 98 -20 10 -207 13 -855 12 -456 0 -840 -4 -852
-9z"/>
<path d="M1240 1747 l-25 -13 -3 -301 c-2 -264 0 -303 14 -317 13 -14 54 -16
309 -16 254 0 296 2 309 16 14 13 16 56 16 313 0 265 -2 300 -17 312 -23 20
-566 25 -603 6z m500 -322 l0 -205 -205 0 -205 0 0 205 0 205 205 0 205 0 0
-205z"/>
<path d="M2146 1198 c-9 -12 -16 -29 -16 -38 0 -9 7 -26 16 -38 l15 -22 859 0
c945 0 890 -4 890 60 0 64 55 60 -890 60 l-859 0 -15 -22z"/>
</g>
</svg>
