<?xml version="1.0" standalone="no"?>
<!DOCTYPE svg PUBLIC "-//W3C//DTD SVG 20010904//EN"
 "http://www.w3.org/TR/2001/REC-SVG-20010904/DTD/svg10.dtd">
<svg version="1.0" xmlns="http://www.w3.org/2000/svg"
 width="50.000000pt" height="50.000000pt" viewBox="0 0 50.000000 50.000000"
 preserveAspectRatio="xMidYMid meet">
<metadata>
Created by potrace 1.16, written by Peter Selinger 2001-2019
</metadata>
<g transform="translate(0.000000,50.000000) scale(0.100000,-0.100000)"
fill="#000000" stroke="none">
<path d="M40 250 l0 -180 210 0 210 0 0 180 0 180 -210 0 -210 0 0 -180z m398
138 c3 -17 -11 -18 -187 -18 -153 0 -191 3 -191 13 0 8 3 17 7 21 4 3 88 5
187 4 163 -3 181 -5 184 -20z m0 -165 l-3 -128 -185 0 -185 0 -3 128 -3 127
191 0 191 0 -3 -127z"/>
<path d="M70 390 c0 -5 5 -10 10 -10 6 0 10 5 10 10 0 6 -4 10 -10 10 -5 0
-10 -4 -10 -10z"/>
<path d="M100 390 c0 -5 5 -10 10 -10 6 0 10 5 10 10 0 6 -4 10 -10 10 -5 0
-10 -4 -10 -10z"/>
<path d="M130 390 c0 -5 5 -10 10 -10 6 0 10 5 10 10 0 6 -4 10 -10 10 -5 0
-10 -4 -10 -10z"/>
<path d="M343 291 c-8 -13 -19 -18 -33 -14 -13 4 -20 1 -20 -9 0 -19 20 -38
40 -38 15 0 50 48 50 69 0 18 -24 13 -37 -8z"/>
<path d="M120 270 c0 -6 28 -10 65 -10 37 0 65 4 65 10 0 6 -28 10 -65 10 -37
0 -65 -4 -65 -10z"/>
<path d="M343 191 c-8 -13 -19 -18 -33 -14 -13 4 -20 1 -20 -9 0 -19 20 -38
40 -38 15 0 50 48 50 69 0 18 -24 13 -37 -8z"/>
<path d="M120 170 c0 -6 28 -10 65 -10 37 0 65 4 65 10 0 6 -28 10 -65 10 -37
0 -65 -4 -65 -10z"/>
</g>
</svg>
